HIERARCHY
ROOT Model_Hips
{
	OFFSET 0.000000 96.915077 0.000000
	CHANNELS 6 Xposition Yposition Zposition Xrotation Yrotation Zrotation
	JOINT Model_Spine
	{
		OFFSET 0.000000 11.137703 -1.289900
		CHANNELS 3 Xrotation Yrotation Zrotation
		JOINT Model_Spine1
		{
			OFFSET 0.000000 12.993942 -1.504922
			CHANNELS 3 Xrotation Yrotation Zrotation
			JOINT Model_Spine2
			{
				OFFSET 0.000000 14.850220 -1.719911
				CHANNELS 3 Xrotation Yrotation Zrotation
				JOINT Model_Neck
				{
					OFFSET 0.000000 16.706543 -1.934903
					CHANNELS 3 Xrotation Yrotation Zrotation
					JOINT Model_Head
					{
						OFFSET 0.000000 10.471298 2.002100
						CHANNELS 3 Xrotation Yrotation Zrotation
						JOINT Model_HeadTop_End
						{
							OFFSET 0.000000 20.842606 3.985100
							CHANNELS 3 Xrotation Yrotation Zrotation
							End Site
							{
								OFFSET 0.000000 21.220154 0.000000
							}
						}
					}
				}
				JOINT Model_LeftShoulder
				{
					OFFSET 7.008500 14.768600 -1.919946
					CHANNELS 3 Xrotation Yrotation Zrotation
					JOINT Model_LeftArm
					{
						OFFSET 14.126271 -3.718048 0.029937
						CHANNELS 3 Xrotation Yrotation Zrotation
						JOINT Model_LeftForeArm
						{
							OFFSET 28.282801 0.000000 0.000000
							CHANNELS 3 Xrotation Yrotation Zrotation
							JOINT Model_LeftHand
							{
								OFFSET 26.204689 0.000000 0.000000
								CHANNELS 3 Xrotation Yrotation Zrotation
								End Site
								{
									OFFSET 26.204704 0.000000 0.000000
								}
							}
						}
					}
				}
				JOINT Model_RightShoulder
				{
					OFFSET -7.008500 14.768555 -1.949840
					CHANNELS 3 Xrotation Yrotation Zrotation
					JOINT Model_RightArm
					{
						OFFSET -14.126281 -3.718018 -0.029932
						CHANNELS 3 Xrotation Yrotation Zrotation
						JOINT Model_RightForeArm
						{
							OFFSET -28.283798 0.000000 -0.000001
							CHANNELS 3 Xrotation Yrotation Zrotation
							JOINT Model_RightHand
							{
								OFFSET -26.204193 0.000000 -0.000001
								CHANNELS 3 Xrotation Yrotation Zrotation
								End Site
								{
									OFFSET -26.204208 0.000000 -0.000001
								}
							}
						}
					}
				}
			}
		}
	}
	JOINT Model_LeftUpLeg
	{
		OFFSET 8.327700 -6.193199 -0.402800
		CHANNELS 3 Xrotation Yrotation Zrotation
		JOINT Model_LeftLeg
		{
			OFFSET 0.735802 -42.108742 -0.610721
			CHANNELS 3 Xrotation Yrotation Zrotation
			JOINT Model_LeftFoot
			{
				OFFSET -0.735806 -36.833748 -0.172876
				CHANNELS 3 Xrotation Yrotation Zrotation
				JOINT Model_LeftToeBase
				{
					OFFSET -0.565857 -11.977769 16.297714
					CHANNELS 3 Xrotation Yrotation Zrotation
					JOINT Model_LeftToe_End
					{
						OFFSET -0.111712 -0.312793 7.857784
						CHANNELS 3 Xrotation Yrotation Zrotation
						End Site
						{
							OFFSET -0.111712 -0.312793 7.857784
						}
					}
				}
			}
		}
	}
	JOINT Model_RightUpLeg
	{
		OFFSET -8.327700 -6.193199 -0.516500
		CHANNELS 3 Xrotation Yrotation Zrotation
		JOINT Model_RightLeg
		{
			OFFSET -0.735785 -42.108738 -0.434061
			CHANNELS 3 Xrotation Yrotation Zrotation
			JOINT Model_RightFoot
			{
				OFFSET 0.735776 -36.833748 -0.021630
				CHANNELS 3 Xrotation Yrotation Zrotation
				JOINT Model_RightToeBase
				{
					OFFSET 0.565817 -11.977745 15.903093
					CHANNELS 3 Xrotation Yrotation Zrotation
					JOINT Model_RightToe_End
					{
						OFFSET 0.111702 -0.312791 7.811342
						CHANNELS 3 Xrotation Yrotation Zrotation
						End Site
						{
							OFFSET 0.111702 -0.312791 7.811342
						}
					}
				}
			}
		}
	}
}
MOTION
Frames: 9
Frame Time: 0.016667
-0.231702 93.727112 1.647629 9.895218 -0.585975 3.035250 8.776773 3.130800 -1.364579 1.602654 1.233846 0.809978 1.612073 1.226179 0.796964 -0.717361 -0.365289 -0.088596 -4.507277 -0.360061 -0.112548 0.000001 0.000000 0.000000 2.578855 4.580133 -8.079599 14.898219 -22.282724 -57.697606 -0.000018 -40.211048 -0.000012 0.000000 -0.000000 0.000000 2.557412 5.288811 5.269833 -21.322456 18.285289 62.204213 -0.000008 49.049508 0.000018 0.000000 0.000000 -0.000000 -29.815278 0.349091 -1.814357 77.741561 6.331459 -0.177052 -1.181654 0.620770 -9.213336 -5.639020 -0.000002 -0.000001 0.000001 -0.000001 0.000000 -1.019457 -5.306855 0.623029 25.713705 7.008507 -3.426489 -22.204067 0.277231 -3.462610 -10.891742 0.050400 -0.495500 0.000000 0.000000 0.000000 
-0.122083 94.756615 4.890821 9.901114 -1.530965 4.091448 8.693266 3.803568 -2.520537 1.423588 1.628135 0.398402 1.433719 1.620886 0.378306 -0.640624 -0.395335 0.097431 -4.436788 -0.360060 -0.150219 0.000003 -0.000001 -0.000000 2.624519 6.013255 -7.887047 17.315055 -21.804344 -56.568870 -0.000009 -42.005581 -0.000012 -0.000001 0.000000 0.000000 2.790293 6.271289 4.248635 -20.985010 20.343136 61.762081 0.000004 52.671376 0.000000 -0.000001 0.000000 -0.000001 -31.956850 1.043116 -2.629794 75.060419 7.808179 -0.725143 -2.975430 1.274252 -11.614888 -3.552584 0.000001 0.000002 -0.000005 0.000000 0.000000 4.308961 -6.563544 -0.203482 17.642242 8.797910 -4.339164 -16.865163 0.255026 -1.309290 -12.144498 0.151565 -1.701660 0.000000 0.000000 0.000000 
0.038202 95.617058 8.236444 10.461174 -2.234653 4.989837 8.357396 4.364473 -3.503265 1.201497 1.967985 0.057338 1.210737 1.960944 0.031268 -0.615068 -0.392768 0.241155 -4.415838 -0.360058 -0.202331 -0.000002 -0.000000 -0.000000 2.737489 7.808990 -8.148888 19.207224 -21.293009 -55.478464 0.000014 -43.887387 0.000002 -0.000002 0.000001 0.000001 3.108316 7.084211 3.354308 -20.234990 22.488232 60.793390 0.000028 56.533438 0.000006 0.000003 -0.000001 -0.000001 -34.043425 1.719536 -3.537961 71.167976 8.919813 -1.479442 -3.500931 2.523333 -10.206170 -2.447940 0.000002 -0.000002 0.000000 -0.000000 -0.000000 8.130968 -8.111569 -0.884076 11.043460 9.888889 -4.984500 -10.326391 1.093125 0.488117 -15.663350 0.246842 -2.466646 0.000000 -0.000000 0.000000 
0.177756 96.529610 11.750825 10.838803 -2.868871 5.677854 8.098478 4.806876 -4.266694 0.967111 2.243933 -0.176399 0.974480 2.236806 -0.209059 -0.669635 -0.348739 0.317460 -4.472924 -0.355910 -0.265520 0.000001 -0.000000 0.000000 2.931146 9.799822 -8.748415 20.427458 -20.591135 -54.664142 -0.000005 -45.838011 -0.000006 -0.000003 0.000000 0.000001 3.507158 7.656945 2.399345 -19.094629 24.871511 59.469726 0.000002 60.598401 -0.000004 0.000000 0.000001 0.000003 -35.790038 2.145743 -4.106342 66.072914 9.182980 -2.234737 -4.210249 3.999365 -9.590375 -1.268773 0.000003 -0.000002 0.000004 0.000000 -0.000000 8.345094 -9.631838 -2.275802 11.651377 10.208874 -5.079691 -5.735793 1.863546 4.588786 -18.343240 0.629923 -5.670399 0.000001 0.000000 0.000000 
0.291054 97.244072 14.973424 11.488568 -3.223712 6.059999 8.005894 5.100182 -4.797272 0.691767 2.440249 -0.371251 0.697078 2.432078 -0.411621 -0.770584 -0.291958 0.403298 -4.574316 -0.348336 -0.336793 -0.000000 0.000000 -0.000000 3.149659 11.783358 -9.305016 21.094095 -19.610653 -54.277095 -0.000003 -47.835203 -0.000012 0.000002 0.000001 0.000000 3.945701 8.166179 1.452897 -17.658469 27.210137 58.106140 0.000014 64.558081 -0.000000 0.000000 0.000000 -0.000002 -37.298563 2.422983 -4.426016 60.393666 9.317035 -2.902918 -5.224703 5.490582 -9.041653 0.042681 -0.000000 -0.000002 -0.000003 0.000000 0.000000 6.814338 -10.929481 -3.287656 14.185156 7.727586 -4.550664 -0.190095 2.821184 7.151150 -24.714444 1.534544 -6.916384 0.000001 -0.000000 0.000000 
0.414215 97.868019 18.291563 11.958494 -3.568508 6.328060 7.909683 5.230027 -5.240764 0.446500 2.559644 -0.599903 0.448464 2.549735 -0.645785 -0.866324 -0.257840 0.620922 -4.668972 -0.338291 -0.411087 -0.000000 -0.000000 -0.000000 3.304095 13.724916 -9.493080 21.560252 -18.554972 -54.125841 -0.000029 -49.843473 -0.000023 -0.000002 0.000001 -0.000001 4.353960 8.801320 0.821153 -15.991585 29.318771 56.782931 -0.000012 68.259538 0.000015 0.000000 0.000002 -0.000000 -37.899104 2.555869 -4.693348 53.265719 9.432779 -3.428545 -4.229696 6.674157 -8.645099 0.823751 -0.000007 0.000005 0.000000 -0.000001 0.000000 6.020651 -11.824484 -4.221396 15.247894 5.411300 -3.911450 7.253203 3.465631 7.064018 -32.466597 2.219835 -5.501883 -0.000001 0.000000 0.000000 
0.486202 98.575844 22.256147 12.229554 -3.666921 6.460322 7.522365 5.228151 -5.562431 0.372835 2.606178 -0.839827 0.370095 2.595452 -0.884154 -0.946064 -0.242381 0.961329 -4.745443 -0.326743 -0.483443 -0.000000 0.000001 -0.000000 3.379482 15.633055 -9.390612 21.857826 -17.787558 -53.931823 -0.000029 -51.833889 -0.000002 -0.000000 -0.000000 -0.000001 4.690074 9.555278 0.561343 -14.025336 31.275040 55.273866 0.000014 71.929747 -0.000009 -0.000002 -0.000002 -0.000002 -37.056416 2.448263 -4.999502 44.057176 9.435258 -3.686592 -3.521402 7.604026 -8.611029 0.921512 0.000001 0.000010 -0.000001 -0.000001 0.000001 5.593143 -12.205866 -4.764693 17.420117 4.105185 -3.831236 13.626579 3.412270 6.630311 -33.246943 1.990342 -4.128220 -0.000001 0.000001 -0.000000 
0.546873 99.270393 26.216198 12.535022 -3.528711 6.267534 6.996511 5.139593 -5.516899 0.423293 2.582532 -0.995035 0.417423 2.572304 -1.034298 -1.021832 -0.214630 1.279406 -4.814854 -0.312784 -0.556277 -0.000001 0.000000 0.000000 3.441474 17.267169 -9.330115 21.822593 -17.422177 -53.598041 -0.000007 -53.781538 0.000008 -0.000000 0.000000 -0.000000 4.963761 10.310253 0.337804 -11.693280 33.039346 53.445110 0.000025 75.890970 0.000002 0.000001 0.000001 0.000000 -35.220615 2.131407 -5.187441 33.827420 9.518752 -3.547240 -2.563643 8.046772 -8.828586 0.617114 0.000005 -0.000002 -0.000001 -0.000001 -0.000002 6.514344 -12.274839 -4.598074 17.714758 3.192891 -4.516233 17.430745 3.332963 7.776347 -25.952619 1.380658 -3.503784 -0.000004 0.000001 -0.000001 
0.499733 99.682793 30.284010 12.950181 -3.022084 5.643209 6.307119 5.006644 -5.090827 0.667960 2.504181 -0.979334 0.659912 2.498336 -1.006142 -1.088897 -0.163817 1.494980 -4.872509 -0.293955 -0.646377 -0.000001 -0.000000 -0.000000 3.548248 18.258118 -9.522249 21.608903 -17.219137 -53.105131 -0.000029 -55.654215 -0.000021 -0.000001 -0.000000 0.000001 5.170859 10.937212 0.020535 -8.967413 34.434805 51.328861 -0.000126 80.218454 0.000145 0.000001 0.000000 0.000000 -33.052009 1.789583 -4.981777 22.997669 9.542019 -3.019153 0.800134 7.653595 -10.392763 0.096449 -0.000003 0.000000 -0.000001 -0.000001 0.000001 7.706526 -12.114759 -3.646146 17.952864 1.376538 -5.634320 20.958357 3.526108 9.994420 -13.683371 0.462206 -2.375890 -0.000002 -0.000000 -0.000000 
